# xmcd
#
# Track frame offsets: 
#        150
#        9730
#        21425
#        32577
#        44365
#        54477
#        65615
#        75032
#        85552
#        92520
#        106427
#        117295
#        125622
#        135547
#        146545
#        158632
#        168110
#        176367
#        188687
#        200115
#        212490
#        220912
#        233895
#        243862
#        257095
#        267592
#        280900
#        291110
#        300567
#        309225
#
# Disc length: 4235 seconds
#
# Revision: 2
# Processed by: cddbd v1.5.2PL0 Copyright (c) Steve Scherf et al.
# Submitted via: ExactAudioCopy v1.3
#
DISCID=9910891e
DTITLE=Various Artist - Thirty Years Of Bluegrass 
DYEAR=1986
DGENRE=Bluegrass
TTITLE0=Stanley Bros - How Mountain Girls Can Love
TTITLE1=Flatt And Scruggs - Rolling In My Sweet Baby's Arms
TTITLE2=Flatt And Scruggs - Salty Dog
TTITLE3=Reno And Smiley - I Know You're Married
TTITLE4=Reno And Smiley - I Wouldn't Change You If I Could
TTITLE5=Country Gentlemen - Freedom Bell
TTITLE6=Hylo Brown - The Girl In The Blue Velvet Band
TTITLE7=Jimmy Martin And Bob Osborne - Blue Eyed Darling
TTITLE8=Stanley Bros - Rank Strangers
TTITLE9=Scotty Stoneman - Talking Fiddle Blues
TTITLE10=Benny Martin - Orange Blossom Special
TTITLE11=Tommy Jackson - Cotton Eyed Joe
TTITLE12=Jim And Jesse - Pardon Me
TTITLE13=Bill Clifton - Blue Ridge Mountain Blues
TTITLE14=Mac Wiseman - I Still Write Your Name In The Sand
TTITLE15=Bill Emerson - Banjo Whiz
TTITLE16=Allen Shelton - Bending The Strings
TTITLE17=Jimmy Martin And Bob Osborne - She's Just A Cute Thing
TTITLE18=Red Allen - Beautiful Blue Eyes
TTITLE19=New Grass Revival - Lonesome Fiddle Blues
TTITLE20=Kentucky Travelers - Dreaming
TTITLE21=Grandpa Jones - Old Rattler
TTITLE22=Bill Harrell - Eatin Out Of Your Hand
TTITLE23=Jim Eanes - Log Cabin In The Lane
TTITLE24=Stringbean - Barnyard Banjo Pickin
TTITLE25=Stoneman Family - Wreck Of Number Nine
TTITLE26=Charlie Monroe - Willow Garden
TTITLE27=Moore And Napier - Truck Driver's Queen
TTITLE28=Buzz Busby - Me And The Juke Box
TTITLE29=Carl Story - Paul And Silas
EXTD=
EXTT0=
EXTT1=
EXTT2=
EXTT3=
EXTT4=
EXTT5=
EXTT6=
EXTT7=
EXTT8=
EXTT9=
EXTT10=
EXTT11=
EXTT12=
EXTT13=
EXTT14=
EXTT15=
EXTT16=
EXTT17=
EXTT18=
EXTT19=
EXTT20=
EXTT21=
EXTT22=
EXTT23=
EXTT24=
EXTT25=
EXTT26=
EXTT27=
EXTT28=
EXTT29=
PLAYORDER=
